<?xml version="1.0" encoding="UTF-8" standalone="no"?>
<!DOCTYPE svg PUBLIC "-//W3C//DTD SVG 1.1//EN"
 "http://www.w3.org/Graphics/SVG/1.1/DTD/svg11.dtd">
<!-- Generated by graphviz version 3.0.0 (20220226.1711)
 -->
<!-- Title: G Pages: 1 -->
<svg width="214pt" height="188pt"
 viewBox="0.00 0.00 213.50 188.00" xmlns="http://www.w3.org/2000/svg" xmlns:xlink="http://www.w3.org/1999/xlink">
<g id="graph0" class="graph" transform="scale(1 1) rotate(0) translate(4 184)">
<title>G</title>
<polygon fill="white" stroke="transparent" points="-4,4 -4,-184 209.5,-184 209.5,4 -4,4"/>
<!-- 0_0 -->
<g id="node1" class="node">
<title>0_0</title>
<polygon fill="none" stroke="black" points="54,-180 0,-180 0,-144 54,-144 54,-180"/>
<text text-anchor="middle" x="27" y="-158.3" font-family="Times New Roman,serif" font-size="14.00">0_0</text>
</g>
<!-- 0_1 -->
<g id="node2" class="node">
<title>0_1</title>
<polygon fill="none" stroke="black" points="130,-180 76,-180 76,-144 130,-144 130,-180"/>
<text text-anchor="middle" x="103" y="-158.3" font-family="Times New Roman,serif" font-size="14.00">0_1</text>
</g>
<!-- 0_0&#45;&gt;0_1 -->
<g id="edge1" class="edge">
<title>0_0&#45;&gt;0_1</title>
<path fill="none" stroke="black" d="M54.02,-162C57.88,-162 61.74,-162 65.6,-162"/>
<polygon fill="black" stroke="black" points="65.83,-165.5 75.83,-162 65.83,-158.5 65.83,-165.5"/>
</g>
<!-- 1_0 -->
<g id="node4" class="node">
<title>1_0</title>
<polygon fill="none" stroke="black" points="54,-108 0,-108 0,-72 54,-72 54,-108"/>
<text text-anchor="middle" x="27" y="-86.3" font-family="Times New Roman,serif" font-size="14.00">1_0</text>
</g>
<!-- 0_0&#45;&gt;1_0 -->
<g id="edge3" class="edge">
<title>0_0&#45;&gt;1_0</title>
<path fill="none" stroke="black" d="M27,-143.7C27,-135.98 27,-126.71 27,-118.11"/>
<polygon fill="black" stroke="black" points="30.5,-118.1 27,-108.1 23.5,-118.1 30.5,-118.1"/>
</g>
<!-- 0_5 -->
<g id="node3" class="node">
<title>0_5</title>
<polygon fill="none" stroke="black" points="202,-180 148,-180 148,-144 202,-144 202,-180"/>
<text text-anchor="middle" x="175" y="-158.3" font-family="Times New Roman,serif" font-size="14.00">0_5</text>
</g>
<!-- 0_1&#45;&gt;0_5 -->
<g id="edge2" class="edge">
<title>0_1&#45;&gt;0_5</title>
<path fill="none" stroke="black" d="M130.28,-162C132.74,-162 135.19,-162 137.65,-162"/>
<polygon fill="black" stroke="black" points="137.75,-165.5 147.75,-162 137.75,-158.5 137.75,-165.5"/>
</g>
<!-- 1_1 -->
<g id="node5" class="node">
<title>1_1</title>
<polygon fill="none" stroke="black" points="133.5,-108 72.5,-108 72.5,-72 133.5,-72 133.5,-108"/>
<text text-anchor="middle" x="103" y="-86.3" font-family="Times New Roman,serif" font-size="14.00">juan.1&#45;1</text>
</g>
<!-- 0_1&#45;&gt;1_1 -->
<g id="edge4" class="edge">
<title>0_1&#45;&gt;1_1</title>
<path fill="none" stroke="black" d="M97.08,-143.7C96.29,-135.98 96.06,-126.71 96.4,-118.11"/>
<polygon fill="black" stroke="black" points="99.9,-118.32 97.1,-108.1 92.92,-117.84 99.9,-118.32"/>
</g>
<!-- 5_5 -->
<g id="node7" class="node">
<title>5_5</title>
<polygon fill="none" stroke="black" points="205.5,-36 144.5,-36 144.5,0 205.5,0 205.5,-36"/>
<text text-anchor="middle" x="175" y="-14.3" font-family="Times New Roman,serif" font-size="14.00">juan.5&#45;5</text>
</g>
<!-- 0_5&#45;&gt;5_5 -->
<g id="edge9" class="edge">
<title>0_5&#45;&gt;5_5</title>
<path fill="none" stroke="black" d="M170.42,-143.87C167.86,-119.67 167.57,-75.21 169.54,-46.39"/>
<polygon fill="black" stroke="black" points="173.05,-46.45 170.41,-36.19 166.07,-45.86 173.05,-46.45"/>
</g>
<!-- 1_0&#45;&gt;1_1 -->
<g id="edge6" class="edge">
<title>1_0&#45;&gt;1_1</title>
<path fill="none" stroke="black" d="M54.02,-77.63C56.79,-77.06 59.56,-76.7 62.34,-76.57"/>
<polygon fill="black" stroke="black" points="62.24,-80.07 72.38,-77.01 62.55,-73.07 62.24,-80.07"/>
</g>
<!-- 5_0 -->
<g id="node6" class="node">
<title>5_0</title>
<polygon fill="none" stroke="black" points="54,-36 0,-36 0,0 54,0 54,-36"/>
<text text-anchor="middle" x="27" y="-14.3" font-family="Times New Roman,serif" font-size="14.00">5_0</text>
</g>
<!-- 1_0&#45;&gt;5_0 -->
<g id="edge8" class="edge">
<title>1_0&#45;&gt;5_0</title>
<path fill="none" stroke="black" d="M27,-71.7C27,-63.98 27,-54.71 27,-46.11"/>
<polygon fill="black" stroke="black" points="30.5,-46.1 27,-36.1 23.5,-46.1 30.5,-46.1"/>
</g>
<!-- 1_1&#45;&gt;0_1 -->
<g id="edge5" class="edge">
<title>1_1&#45;&gt;0_1</title>
<path fill="none" stroke="black" d="M108.9,-108.1C109.7,-115.79 109.94,-125.05 109.6,-133.67"/>
<polygon fill="black" stroke="black" points="106.11,-133.48 108.92,-143.7 113.09,-133.96 106.11,-133.48"/>
</g>
<!-- 1_1&#45;&gt;1_0 -->
<g id="edge7" class="edge">
<title>1_1&#45;&gt;1_0</title>
<path fill="none" stroke="black" d="M72.38,-102.99C69.61,-103.37 66.84,-103.54 64.06,-103.49"/>
<polygon fill="black" stroke="black" points="64.34,-100 54.02,-102.37 63.57,-106.96 64.34,-100"/>
</g>
<!-- 5_0&#45;&gt;5_5 -->
<g id="edge11" class="edge">
<title>5_0&#45;&gt;5_5</title>
<path fill="none" stroke="black" d="M54.17,-9.91C80.93,-3.73 107.7,-2.84 134.46,-7.26"/>
<polygon fill="black" stroke="black" points="133.84,-10.71 144.32,-9.13 135.15,-3.83 133.84,-10.71"/>
</g>
<!-- 5_5&#45;&gt;0_5 -->
<g id="edge10" class="edge">
<title>5_5&#45;&gt;0_5</title>
<path fill="none" stroke="black" d="M179.59,-36.19C182.15,-60.42 182.43,-104.89 180.45,-133.68"/>
<polygon fill="black" stroke="black" points="176.95,-133.61 179.58,-143.87 183.92,-134.21 176.95,-133.61"/>
</g>
<!-- 5_5&#45;&gt;5_0 -->
<g id="edge12" class="edge">
<title>5_5&#45;&gt;5_0</title>
<path fill="none" stroke="black" d="M144.32,-26.87C117.56,-32.59 90.79,-33.01 64.03,-28.13"/>
<polygon fill="black" stroke="black" points="64.67,-24.69 54.17,-26.09 63.26,-31.54 64.67,-24.69"/>
</g>
</g>
</svg>
